<?xml version="1.0" standalone="no"?>
<!DOCTYPE svg PUBLIC "-//W3C//DTD SVG 20010904//EN"
 "http://www.w3.org/TR/2001/REC-SVG-20010904/DTD/svg10.dtd">
<svg version="1.0" xmlns="http://www.w3.org/2000/svg"
 width="417.000000pt" height="417.000000pt" viewBox="0 0 417.000000 417.000000"
 preserveAspectRatio="xMidYMid meet">
<metadata>
Created by potrace 1.14, written by Peter Selinger 2001-2017
</metadata>
<g transform="translate(0.000000,417.000000) scale(0.100000,-0.100000)"
fill="#000000" stroke="none">
<path d="M2055 3542 c-1 -1 -28 -5 -59 -7 -31 -2 -65 -7 -76 -10 -10 -3 -34
-7 -52 -9 -38 -4 -88 -16 -103 -24 -5 -4 -16 -7 -25 -8 -21 -4 -42 -10 -62
-18 -9 -4 -22 -9 -30 -10 -7 -1 -33 -12 -58 -24 -25 -11 -52 -22 -60 -24 -8
-2 -17 -6 -20 -9 -3 -3 -25 -17 -50 -31 -63 -35 -123 -71 -135 -80 -5 -5 -39
-31 -75 -58 -109 -85 -246 -237 -315 -352 -37 -62 -86 -157 -105 -205 -13 -32
-27 -62 -32 -67 -4 -6 -8 -20 -8 -32 0 -13 -5 -26 -11 -29 -5 -4 -8 -12 -6
-18 2 -7 -4 -32 -13 -57 -13 -34 -15 -51 -8 -64 8 -14 7 -17 -1 -12 -6 4 -11
0 -12 -11 0 -10 -2 -27 -5 -38 -2 -11 -5 -36 -5 -56 -1 -20 -5 -43 -9 -50 -5
-7 -4 -21 1 -31 6 -12 6 -18 0 -18 -7 0 -7 -9 -1 -25 5 -14 6 -25 1 -25 -8 0
-4 -100 5 -109 2 -2 -1 -10 -7 -18 -6 -7 -7 -13 -2 -13 5 0 10 -12 10 -27 3
-85 31 -214 73 -328 12 -33 22 -65 23 -70 3 -14 67 -138 77 -149 5 -4 2 -29
-5 -54 -8 -25 -12 -49 -9 -53 2 -4 0 -10 -5 -13 -4 -3 -12 -20 -16 -38 -4 -18
-9 -37 -11 -43 -1 -5 -5 -20 -8 -33 -3 -12 -9 -32 -12 -45 -3 -12 -7 -29 -9
-37 -2 -8 -4 -15 -5 -15 -2 0 -10 -36 -12 -57 -1 -10 -6 -18 -11 -18 -5 0 -7
-6 -4 -12 2 -7 -2 -30 -9 -52 -8 -21 -12 -42 -9 -46 3 -5 0 -12 -6 -15 -5 -4
-8 -13 -5 -21 3 -8 2 -14 -3 -14 -5 0 -11 -12 -14 -28 -3 -15 -9 -43 -13 -62
-4 -19 -7 -43 -8 -52 0 -9 -4 -14 -8 -12 -4 3 -8 -2 -8 -11 0 -18 9 -17 125
15 44 12 89 24 100 25 11 2 32 8 48 14 15 6 27 8 27 5 0 -2 8 0 18 5 11 6 30
12 43 15 88 16 107 21 137 33 17 7 32 11 32 8 0 -2 11 0 25 5 14 5 36 12 48
14 12 2 40 8 62 14 83 21 94 22 107 10 14 -14 44 -27 143 -62 33 -12 65 -25
71 -28 6 -4 25 -10 42 -13 17 -3 42 -9 56 -15 15 -5 26 -7 26 -4 0 4 8 0 17
-7 14 -12 16 -12 8 0 -6 11 -5 12 6 5 8 -5 16 -9 19 -9 3 -1 30 -5 60 -9 30
-5 58 -14 62 -20 6 -8 8 -8 8 0 0 7 16 10 43 8 42 -4 178 -7 187 -4 3 1 23 3
45 4 51 4 125 16 188 32 34 8 38 9 112 32 39 12 73 20 76 19 3 -1 13 6 23 16
15 15 21 16 34 5 11 -9 13 -9 9 -1 -5 8 6 18 30 29 21 10 41 22 44 27 3 5 9 8
13 8 12 -1 81 34 100 52 11 9 23 17 27 17 3 0 22 13 40 30 19 16 37 30 41 30
4 0 18 10 32 23 13 12 33 29 43 38 65 57 243 265 243 285 0 14 38 53 45 46 4
-4 2 4 -5 17 -7 14 -8 21 -1 17 14 -9 116 206 103 219 -4 3 -2 9 4 13 14 10
36 90 28 104 -4 7 -3 8 4 4 7 -4 12 -4 13 1 1 20 8 60 14 88 6 28 10 56 13 98
1 12 6 15 15 11 9 -6 9 -4 -1 8 -7 8 -9 24 -5 33 5 14 3 16 -8 10 -12 -8 -12
-6 0 8 7 9 11 24 7 32 -3 8 -1 15 4 15 5 0 5 12 0 29 -5 19 -4 33 3 40 7 7 7
11 1 11 -6 0 -10 19 -11 43 -1 110 -3 128 -14 121 -8 -5 -9 -2 -1 11 6 11 6
29 1 44 -7 22 -15 64 -18 95 -1 5 -7 5 -14 0 -7 -5 -4 -1 6 9 15 13 16 17 4
17 -8 0 -14 6 -14 13 2 24 -15 87 -24 87 -5 0 -8 3 -7 8 5 12 -26 96 -39 110
-7 8 -11 18 -8 23 4 5 1 9 -4 9 -6 0 -11 9 -11 20 0 11 -4 20 -8 20 -5 0 -14
16 -22 35 -8 19 -16 35 -19 35 -4 0 -12 13 -19 28 -6 16 -20 37 -30 48 -9 10
-29 37 -44 59 -34 50 -157 177 -224 230 -27 22 -51 43 -54 46 -5 6 -82 56
-115 76 -11 6 -19 16 -18 22 2 6 -4 8 -11 5 -8 -3 -34 7 -58 22 -23 15 -44 27
-46 26 -1 -2 -16 5 -32 13 -17 9 -30 13 -30 9 0 -4 -7 -1 -15 6 -8 7 -22 10
-30 6 -9 -3 -13 -2 -10 4 3 5 -15 15 -40 21 -25 6 -48 15 -51 20 -3 5 -10 9
-15 9 -6 0 -7 -6 -3 -12 5 -8 0 -7 -11 2 -10 8 -25 15 -34 15 -9 1 -25 4 -36
8 -11 3 -40 8 -64 11 -24 3 -46 8 -49 11 -3 2 -12 -1 -20 -8 -10 -7 -13 -7 -9
-1 5 8 -17 12 -71 13 -42 1 -97 3 -120 4 -24 1 -45 1 -47 -1z m65 -248 c0 -8
-19 -13 -24 -6 -3 5 1 9 9 9 8 0 15 -2 15 -3z m50 0 c0 -8 -19 -13 -24 -6 -3
5 1 9 9 9 8 0 15 -2 15 -3z m-305 -33 c3 -5 2 -12 -3 -15 -5 -3 -9 1 -9 9 0
17 3 19 12 6z m76 -24 c-10 -9 -11 -8 -5 6 3 10 9 15 12 12 3 -3 0 -11 -7 -18z
m-171 -27 c0 -5 -2 -10 -4 -10 -3 0 -8 5 -11 10 -3 6 -1 10 4 10 6 0 11 -4 11
-10z m-89 -33 c-10 -9 -11 -8 -5 6 3 10 9 15 12 12 3 -3 0 -11 -7 -18z m-277
-173 c3 -8 2 -12 -4 -9 -6 3 -10 10 -10 16 0 14 7 11 14 -7z m-34 -68 c0 -2
-7 -7 -16 -10 -8 -3 -12 -2 -9 4 6 10 25 14 25 6z m-282 -1836 c-7 -10 -14
-17 -17 -15 -4 4 18 35 25 35 2 0 -1 -9 -8 -20z m22 -50 c0 -5 -5 -10 -11 -10
-5 0 -7 5 -4 10 3 6 8 10 11 10 2 0 4 -4 4 -10z m-26 -29 c-2 -3 -12 3 -22 13
-16 17 -16 18 5 5 12 -7 20 -15 17 -18z"/>
<path d="M3510 2611 c0 -6 4 -13 10 -16 6 -3 7 1 4 9 -7 18 -14 21 -14 7z"/>
</g>
</svg>
